<svg width="45" height="44" viewBox="0 0 45 44" fill="none" xmlns="http://www.w3.org/2000/svg">
<path d="M22.8848 10.7695C16.6738 10.7695 11.6641 15.7793 11.6641 21.9902C11.6641 28.2012 16.6738 33.2109 22.8848 33.2109C29.0957 33.2109 34.1054 28.2012 34.1054 21.9902C34.1054 15.7793 29.0957 10.7695 22.8848 10.7695ZM22.8848 29.2852C18.8711 29.2852 15.5898 26.0137 15.5898 21.9902C15.5898 17.9668 18.8613 14.6953 22.8848 14.6953C26.9082 14.6953 30.1797 17.9668 30.1797 21.9902C30.1797 26.0137 26.8984 29.2852 22.8848 29.2852ZM37.1816 10.3105C37.1816 11.7656 36.0097 12.9277 34.5644 12.9277C33.1094 12.9277 31.9472 11.7559 31.9472 10.3105C31.9472 8.86523 33.1191 7.69336 34.5644 7.69336C36.0097 7.69336 37.1816 8.86523 37.1816 10.3105ZM44.6133 12.9668C44.4472 9.46094 43.6465 6.35547 41.0781 3.79687C38.5195 1.23828 35.414 0.4375 31.9082 0.261719C28.2949 0.0566406 17.4648 0.0566406 13.8516 0.261719C10.3555 0.427734 7.25 1.22852 4.68164 3.78711C2.11328 6.3457 1.32227 9.45117 1.14648 12.957C0.941406 16.5703 0.941406 27.4004 1.14648 31.0137C1.3125 34.5195 2.11328 37.625 4.68164 40.1836C7.25 42.7422 10.3457 43.543 13.8516 43.7188C17.4648 43.9238 28.2949 43.9238 31.9082 43.7188C35.414 43.5527 38.5195 42.752 41.0781 40.1836C43.6367 37.625 44.4375 34.5195 44.6133 31.0137C44.8183 27.4004 44.8183 16.5801 44.6133 12.9668ZM39.9453 34.8906C39.1836 36.8047 37.709 38.2793 35.7851 39.0508C32.9043 40.1934 26.0683 39.9297 22.8848 39.9297C19.7012 39.9297 12.8555 40.1836 9.98437 39.0508C8.07031 38.2891 6.5957 36.8145 5.82422 34.8906C4.68164 32.0098 4.94531 25.1738 4.94531 21.9902C4.94531 18.8066 4.6914 11.9609 5.82422 9.08984C6.58593 7.17578 8.06054 5.70117 9.98437 4.92969C12.8652 3.78711 19.7012 4.05078 22.8848 4.05078C26.0683 4.05078 32.914 3.79687 35.7851 4.92969C37.6992 5.69141 39.1738 7.16602 39.9453 9.08984C41.0879 11.9707 40.8242 18.8066 40.8242 21.9902C40.8242 25.1738 41.0879 32.0195 39.9453 34.8906Z" fill="white"/>
</svg>
